<?xml version="1.0" standalone="no"?>
<!DOCTYPE svg PUBLIC "-//W3C//DTD SVG 20010904//EN"
 "http://www.w3.org/TR/2001/REC-SVG-20010904/DTD/svg10.dtd">
<svg version="1.0" xmlns="http://www.w3.org/2000/svg"
 width="59.000000pt" height="40.000000pt" viewBox="0 0 59.000000 40.000000"
 preserveAspectRatio="xMidYMid meet">

<g transform="translate(0.000000,40.000000) scale(0.100000,-0.100000)"
fill="#000000" stroke="none">
<path d="M268 389 c-10 -5 -18 -16 -18 -24 0 -8 -21 -24 -47 -35 -27 -12 -63
-35 -81 -53 -34 -32 -72 -95 -72 -119 0 -6 -12 -24 -26 -39 -15 -16 -24 -34
-21 -43 15 -38 158 -75 292 -75 134 0 277 37 292 75 3 9 -6 27 -21 43 -14 15
-26 33 -26 39 0 24 -38 87 -72 119 -18 18 -54 41 -80 53 -27 11 -48 27 -48 35
0 14 -29 35 -47 35 -4 0 -16 -5 -25 -11z m50 -26 c2 -8 -6 -13 -22 -13 -25 0
-33 10 -19 24 10 10 36 3 41 -11z m79 -57 c65 -33 115 -99 128 -167 8 -44 7
-44 -112 -60 -112 -15 -325 0 -349 24 -11 11 10 80 35 116 52 79 122 114 212
107 31 -2 70 -11 86 -20z m-355 -217 c4 -13 172 -39 253 -39 86 0 246 26 256
41 4 8 12 10 16 5 15 -14 -34 -43 -99 -57 -158 -35 -448 -2 -448 51 0 13 17
13 22 -1z"/>
<path d="M245 300 c-4 -6 7 -10 24 -10 17 0 31 5 31 10 0 6 -11 10 -24 10 -14
0 -28 -4 -31 -10z"/>
<path d="M152 251 c-46 -46 -80 -131 -52 -131 6 0 10 7 10 17 0 24 48 101 70
113 21 11 27 30 11 30 -5 0 -23 -13 -39 -29z"/>
</g>
</svg>
